# Unit sphere sample mesh for the DirectX 12 mesh viewer.
# Right-handed, outward CCW triangles, smooth normals.
v 0.000000 1.000000 0.000000
v 0.309017 0.951057 0.000000
v 0.285494 0.951057 0.118256
v 0.218508 0.951057 0.218508
v 0.118256 0.951057 0.285494
v 0.000000 0.951057 0.309017
v -0.118256 0.951057 0.285494
v -0.218508 0.951057 0.218508
v -0.285494 0.951057 0.118256
v -0.309017 0.951057 0.000000
v -0.285494 0.951057 -0.118256
v -0.218508 0.951057 -0.218508
v -0.118256 0.951057 -0.285494
v -0.000000 0.951057 -0.309017
v 0.118256 0.951057 -0.285494
v 0.218508 0.951057 -0.218508
v 0.285494 0.951057 -0.118256
v 0.587785 0.809017 0.000000
v 0.543043 0.809017 0.224936
v 0.415627 0.809017 0.415627
v 0.224936 0.809017 0.543043
v 0.000000 0.809017 0.587785
v -0.224936 0.809017 0.543043
v -0.415627 0.809017 0.415627
v -0.543043 0.809017 0.224936
v -0.587785 0.809017 0.000000
v -0.543043 0.809017 -0.224936
v -0.415627 0.809017 -0.415627
v -0.224936 0.809017 -0.543043
v -0.000000 0.809017 -0.587785
v 0.224936 0.809017 -0.543043
v 0.415627 0.809017 -0.415627
v 0.543043 0.809017 -0.224936
v 0.809017 0.587785 0.000000
v 0.747434 0.587785 0.309597
v 0.572061 0.587785 0.572061
v 0.309597 0.587785 0.747434
v 0.000000 0.587785 0.809017
v -0.309597 0.587785 0.747434
v -0.572061 0.587785 0.572061
v -0.747434 0.587785 0.309597
v -0.809017 0.587785 0.000000
v -0.747434 0.587785 -0.309597
v -0.572061 0.587785 -0.572061
v -0.309597 0.587785 -0.747434
v -0.000000 0.587785 -0.809017
v 0.309597 0.587785 -0.747434
v 0.572061 0.587785 -0.572061
v 0.747434 0.587785 -0.309597
v 0.951057 0.309017 0.000000
v 0.878662 0.309017 0.363954
v 0.672499 0.309017 0.672499
v 0.363954 0.309017 0.878662
v 0.000000 0.309017 0.951057
v -0.363954 0.309017 0.878662
v -0.672499 0.309017 0.672499
v -0.878662 0.309017 0.363954
v -0.951057 0.309017 0.000000
v -0.878662 0.309017 -0.363954
v -0.672499 0.309017 -0.672499
v -0.363954 0.309017 -0.878662
v -0.000000 0.309017 -0.951057
v 0.363954 0.309017 -0.878662
v 0.672499 0.309017 -0.672499
v 0.878662 0.309017 -0.363954
v 1.000000 0.000000 0.000000
v 0.923880 0.000000 0.382683
v 0.707107 0.000000 0.707107
v 0.382683 0.000000 0.923880
v 0.000000 0.000000 1.000000
v -0.382683 0.000000 0.923880
v -0.707107 0.000000 0.707107
v -0.923880 0.000000 0.382683
v -1.000000 0.000000 0.000000
v -0.923880 0.000000 -0.382683
v -0.707107 0.000000 -0.707107
v -0.382683 0.000000 -0.923880
v -0.000000 0.000000 -1.000000
v 0.382683 0.000000 -0.923880
v 0.707107 0.000000 -0.707107
v 0.923880 0.000000 -0.382683
v 0.951057 -0.309017 0.000000
v 0.878662 -0.309017 0.363954
v 0.672499 -0.309017 0.672499
v 0.363954 -0.309017 0.878662
v 0.000000 -0.309017 0.951057
v -0.363954 -0.309017 0.878662
v -0.672499 -0.309017 0.672499
v -0.878662 -0.309017 0.363954
v -0.951057 -0.309017 0.000000
v -0.878662 -0.309017 -0.363954
v -0.672499 -0.309017 -0.672499
v -0.363954 -0.309017 -0.878662
v -0.000000 -0.309017 -0.951057
v 0.363954 -0.309017 -0.878662
v 0.672499 -0.309017 -0.672499
v 0.878662 -0.309017 -0.363954
v 0.809017 -0.587785 0.000000
v 0.747434 -0.587785 0.309597
v 0.572061 -0.587785 0.572061
v 0.309597 -0.587785 0.747434
v 0.000000 -0.587785 0.809017
v -0.309597 -0.587785 0.747434
v -0.572061 -0.587785 0.572061
v -0.747434 -0.587785 0.309597
v -0.809017 -0.587785 0.000000
v -0.747434 -0.587785 -0.309597
v -0.572061 -0.587785 -0.572061
v -0.309597 -0.587785 -0.747434
v -0.000000 -0.587785 -0.809017
v 0.309597 -0.587785 -0.747434
v 0.572061 -0.587785 -0.572061
v 0.747434 -0.587785 -0.309597
v 0.587785 -0.809017 0.000000
v 0.543043 -0.809017 0.224936
v 0.415627 -0.809017 0.415627
v 0.224936 -0.809017 0.543043
v 0.000000 -0.809017 0.587785
v -0.224936 -0.809017 0.543043
v -0.415627 -0.809017 0.415627
v -0.543043 -0.809017 0.224936
v -0.587785 -0.809017 0.000000
v -0.543043 -0.809017 -0.224936
v -0.415627 -0.809017 -0.415627
v -0.224936 -0.809017 -0.543043
v -0.000000 -0.809017 -0.587785
v 0.224936 -0.809017 -0.543043
v 0.415627 -0.809017 -0.415627
v 0.543043 -0.809017 -0.224936
v 0.309017 -0.951057 0.000000
v 0.285494 -0.951057 0.118256
v 0.218508 -0.951057 0.218508
v 0.118256 -0.951057 0.285494
v 0.000000 -0.951057 0.309017
v -0.118256 -0.951057 0.285494
v -0.218508 -0.951057 0.218508
v -0.285494 -0.951057 0.118256
v -0.309017 -0.951057 0.000000
v -0.285494 -0.951057 -0.118256
v -0.218508 -0.951057 -0.218508
v -0.118256 -0.951057 -0.285494
v -0.000000 -0.951057 -0.309017
v 0.118256 -0.951057 -0.285494
v 0.218508 -0.951057 -0.218508
v 0.285494 -0.951057 -0.118256
v 0.000000 -1.000000 0.000000
vn 0.000000 1.000000 0.000000
vn 0.309017 0.951057 0.000000
vn 0.285494 0.951057 0.118256
vn 0.218508 0.951057 0.218508
vn 0.118256 0.951057 0.285494
vn 0.000000 0.951057 0.309017
vn -0.118256 0.951057 0.285494
vn -0.218508 0.951057 0.218508
vn -0.285494 0.951057 0.118256
vn -0.309017 0.951057 0.000000
vn -0.285494 0.951057 -0.118256
vn -0.218508 0.951057 -0.218508
vn -0.118256 0.951057 -0.285494
vn -0.000000 0.951057 -0.309017
vn 0.118256 0.951057 -0.285494
vn 0.218508 0.951057 -0.218508
vn 0.285494 0.951057 -0.118256
vn 0.587785 0.809017 0.000000
vn 0.543043 0.809017 0.224936
vn 0.415627 0.809017 0.415627
vn 0.224936 0.809017 0.543043
vn 0.000000 0.809017 0.587785
vn -0.224936 0.809017 0.543043
vn -0.415627 0.809017 0.415627
vn -0.543043 0.809017 0.224936
vn -0.587785 0.809017 0.000000
vn -0.543043 0.809017 -0.224936
vn -0.415627 0.809017 -0.415627
vn -0.224936 0.809017 -0.543043
vn -0.000000 0.809017 -0.587785
vn 0.224936 0.809017 -0.543043
vn 0.415627 0.809017 -0.415627
vn 0.543043 0.809017 -0.224936
vn 0.809017 0.587785 0.000000
vn 0.747434 0.587785 0.309597
vn 0.572061 0.587785 0.572061
vn 0.309597 0.587785 0.747434
vn 0.000000 0.587785 0.809017
vn -0.309597 0.587785 0.747434
vn -0.572061 0.587785 0.572061
vn -0.747434 0.587785 0.309597
vn -0.809017 0.587785 0.000000
vn -0.747434 0.587785 -0.309597
vn -0.572061 0.587785 -0.572061
vn -0.309597 0.587785 -0.747434
vn -0.000000 0.587785 -0.809017
vn 0.309597 0.587785 -0.747434
vn 0.572061 0.587785 -0.572061
vn 0.747434 0.587785 -0.309597
vn 0.951057 0.309017 0.000000
vn 0.878662 0.309017 0.363954
vn 0.672499 0.309017 0.672499
vn 0.363954 0.309017 0.878662
vn 0.000000 0.309017 0.951057
vn -0.363954 0.309017 0.878662
vn -0.672499 0.309017 0.672499
vn -0.878662 0.309017 0.363954
vn -0.951057 0.309017 0.000000
vn -0.878662 0.309017 -0.363954
vn -0.672499 0.309017 -0.672499
vn -0.363954 0.309017 -0.878662
vn -0.000000 0.309017 -0.951057
vn 0.363954 0.309017 -0.878662
vn 0.672499 0.309017 -0.672499
vn 0.878662 0.309017 -0.363954
vn 1.000000 0.000000 0.000000
vn 0.923880 0.000000 0.382683
vn 0.707107 0.000000 0.707107
vn 0.382683 0.000000 0.923880
vn 0.000000 0.000000 1.000000
vn -0.382683 0.000000 0.923880
vn -0.707107 0.000000 0.707107
vn -0.923880 0.000000 0.382683
vn -1.000000 0.000000 0.000000
vn -0.923880 0.000000 -0.382683
vn -0.707107 0.000000 -0.707107
vn -0.382683 0.000000 -0.923880
vn -0.000000 0.000000 -1.000000
vn 0.382683 0.000000 -0.923880
vn 0.707107 0.000000 -0.707107
vn 0.923880 0.000000 -0.382683
vn 0.951057 -0.309017 0.000000
vn 0.878662 -0.309017 0.363954
vn 0.672499 -0.309017 0.672499
vn 0.363954 -0.309017 0.878662
vn 0.000000 -0.309017 0.951057
vn -0.363954 -0.309017 0.878662
vn -0.672499 -0.309017 0.672499
vn -0.878662 -0.309017 0.363954
vn -0.951057 -0.309017 0.000000
vn -0.878662 -0.309017 -0.363954
vn -0.672499 -0.309017 -0.672499
vn -0.363954 -0.309017 -0.878662
vn -0.000000 -0.309017 -0.951057
vn 0.363954 -0.309017 -0.878662
vn 0.672499 -0.309017 -0.672499
vn 0.878662 -0.309017 -0.363954
vn 0.809017 -0.587785 0.000000
vn 0.747434 -0.587785 0.309597
vn 0.572061 -0.587785 0.572061
vn 0.309597 -0.587785 0.747434
vn 0.000000 -0.587785 0.809017
vn -0.309597 -0.587785 0.747434
vn -0.572061 -0.587785 0.572061
vn -0.747434 -0.587785 0.309597
vn -0.809017 -0.587785 0.000000
vn -0.747434 -0.587785 -0.309597
vn -0.572061 -0.587785 -0.572061
vn -0.309597 -0.587785 -0.747434
vn -0.000000 -0.587785 -0.809017
vn 0.309597 -0.587785 -0.747434
vn 0.572061 -0.587785 -0.572061
vn 0.747434 -0.587785 -0.309597
vn 0.587785 -0.809017 0.000000
vn 0.543043 -0.809017 0.224936
vn 0.415627 -0.809017 0.415627
vn 0.224936 -0.809017 0.543043
vn 0.000000 -0.809017 0.587785
vn -0.224936 -0.809017 0.543043
vn -0.415627 -0.809017 0.415627
vn -0.543043 -0.809017 0.224936
vn -0.587785 -0.809017 0.000000
vn -0.543043 -0.809017 -0.224936
vn -0.415627 -0.809017 -0.415627
vn -0.224936 -0.809017 -0.543043
vn -0.000000 -0.809017 -0.587785
vn 0.224936 -0.809017 -0.543043
vn 0.415627 -0.809017 -0.415627
vn 0.543043 -0.809017 -0.224936
vn 0.309017 -0.951057 0.000000
vn 0.285494 -0.951057 0.118256
vn 0.218508 -0.951057 0.218508
vn 0.118256 -0.951057 0.285494
vn 0.000000 -0.951057 0.309017
vn -0.118256 -0.951057 0.285494
vn -0.218508 -0.951057 0.218508
vn -0.285494 -0.951057 0.118256
vn -0.309017 -0.951057 0.000000
vn -0.285494 -0.951057 -0.118256
vn -0.218508 -0.951057 -0.218508
vn -0.118256 -0.951057 -0.285494
vn -0.000000 -0.951057 -0.309017
vn 0.118256 -0.951057 -0.285494
vn 0.218508 -0.951057 -0.218508
vn 0.285494 -0.951057 -0.118256
vn 0.000000 -1.000000 0.000000
f 1//1 3//3 2//2
f 1//1 4//4 3//3
f 1//1 5//5 4//4
f 1//1 6//6 5//5
f 1//1 7//7 6//6
f 1//1 8//8 7//7
f 1//1 9//9 8//8
f 1//1 10//10 9//9
f 1//1 11//11 10//10
f 1//1 12//12 11//11
f 1//1 13//13 12//12
f 1//1 14//14 13//13
f 1//1 15//15 14//14
f 1//1 16//16 15//15
f 1//1 17//17 16//16
f 1//1 2//2 17//17
f 2//2 3//3 18//18
f 3//3 19//19 18//18
f 3//3 4//4 19//19
f 4//4 20//20 19//19
f 4//4 5//5 20//20
f 5//5 21//21 20//20
f 5//5 6//6 21//21
f 6//6 22//22 21//21
f 6//6 7//7 22//22
f 7//7 23//23 22//22
f 7//7 8//8 23//23
f 8//8 24//24 23//23
f 8//8 9//9 24//24
f 9//9 25//25 24//24
f 9//9 10//10 25//25
f 10//10 26//26 25//25
f 10//10 11//11 26//26
f 11//11 27//27 26//26
f 11//11 12//12 27//27
f 12//12 28//28 27//27
f 12//12 13//13 28//28
f 13//13 29//29 28//28
f 13//13 14//14 29//29
f 14//14 30//30 29//29
f 14//14 15//15 30//30
f 15//15 31//31 30//30
f 15//15 16//16 31//31
f 16//16 32//32 31//31
f 16//16 17//17 32//32
f 17//17 33//33 32//32
f 17//17 2//2 33//33
f 2//2 18//18 33//33
f 18//18 19//19 34//34
f 19//19 35//35 34//34
f 19//19 20//20 35//35
f 20//20 36//36 35//35
f 20//20 21//21 36//36
f 21//21 37//37 36//36
f 21//21 22//22 37//37
f 22//22 38//38 37//37
f 22//22 23//23 38//38
f 23//23 39//39 38//38
f 23//23 24//24 39//39
f 24//24 40//40 39//39
f 24//24 25//25 40//40
f 25//25 41//41 40//40
f 25//25 26//26 41//41
f 26//26 42//42 41//41
f 26//26 27//27 42//42
f 27//27 43//43 42//42
f 27//27 28//28 43//43
f 28//28 44//44 43//43
f 28//28 29//29 44//44
f 29//29 45//45 44//44
f 29//29 30//30 45//45
f 30//30 46//46 45//45
f 30//30 31//31 46//46
f 31//31 47//47 46//46
f 31//31 32//32 47//47
f 32//32 48//48 47//47
f 32//32 33//33 48//48
f 33//33 49//49 48//48
f 33//33 18//18 49//49
f 18//18 34//34 49//49
f 34//34 35//35 50//50
f 35//35 51//51 50//50
f 35//35 36//36 51//51
f 36//36 52//52 51//51
f 36//36 37//37 52//52
f 37//37 53//53 52//52
f 37//37 38//38 53//53
f 38//38 54//54 53//53
f 38//38 39//39 54//54
f 39//39 55//55 54//54
f 39//39 40//40 55//55
f 40//40 56//56 55//55
f 40//40 41//41 56//56
f 41//41 57//57 56//56
f 41//41 42//42 57//57
f 42//42 58//58 57//57
f 42//42 43//43 58//58
f 43//43 59//59 58//58
f 43//43 44//44 59//59
f 44//44 60//60 59//59
f 44//44 45//45 60//60
f 45//45 61//61 60//60
f 45//45 46//46 61//61
f 46//46 62//62 61//61
f 46//46 47//47 62//62
f 47//47 63//63 62//62
f 47//47 48//48 63//63
f 48//48 64//64 63//63
f 48//48 49//49 64//64
f 49//49 65//65 64//64
f 49//49 34//34 65//65
f 34//34 50//50 65//65
f 50//50 51//51 66//66
f 51//51 67//67 66//66
f 51//51 52//52 67//67
f 52//52 68//68 67//67
f 52//52 53//53 68//68
f 53//53 69//69 68//68
f 53//53 54//54 69//69
f 54//54 70//70 69//69
f 54//54 55//55 70//70
f 55//55 71//71 70//70
f 55//55 56//56 71//71
f 56//56 72//72 71//71
f 56//56 57//57 72//72
f 57//57 73//73 72//72
f 57//57 58//58 73//73
f 58//58 74//74 73//73
f 58//58 59//59 74//74
f 59//59 75//75 74//74
f 59//59 60//60 75//75
f 60//60 76//76 75//75
f 60//60 61//61 76//76
f 61//61 77//77 76//76
f 61//61 62//62 77//77
f 62//62 78//78 77//77
f 62//62 63//63 78//78
f 63//63 79//79 78//78
f 63//63 64//64 79//79
f 64//64 80//80 79//79
f 64//64 65//65 80//80
f 65//65 81//81 80//80
f 65//65 50//50 81//81
f 50//50 66//66 81//81
f 66//66 67//67 82//82
f 67//67 83//83 82//82
f 67//67 68//68 83//83
f 68//68 84//84 83//83
f 68//68 69//69 84//84
f 69//69 85//85 84//84
f 69//69 70//70 85//85
f 70//70 86//86 85//85
f 70//70 71//71 86//86
f 71//71 87//87 86//86
f 71//71 72//72 87//87
f 72//72 88//88 87//87
f 72//72 73//73 88//88
f 73//73 89//89 88//88
f 73//73 74//74 89//89
f 74//74 90//90 89//89
f 74//74 75//75 90//90
f 75//75 91//91 90//90
f 75//75 76//76 91//91
f 76//76 92//92 91//91
f 76//76 77//77 92//92
f 77//77 93//93 92//92
f 77//77 78//78 93//93
f 78//78 94//94 93//93
f 78//78 79//79 94//94
f 79//79 95//95 94//94
f 79//79 80//80 95//95
f 80//80 96//96 95//95
f 80//80 81//81 96//96
f 81//81 97//97 96//96
f 81//81 66//66 97//97
f 66//66 82//82 97//97
f 82//82 83//83 98//98
f 83//83 99//99 98//98
f 83//83 84//84 99//99
f 84//84 100//100 99//99
f 84//84 85//85 100//100
f 85//85 101//101 100//100
f 85//85 86//86 101//101
f 86//86 102//102 101//101
f 86//86 87//87 102//102
f 87//87 103//103 102//102
f 87//87 88//88 103//103
f 88//88 104//104 103//103
f 88//88 89//89 104//104
f 89//89 105//105 104//104
f 89//89 90//90 105//105
f 90//90 106//106 105//105
f 90//90 91//91 106//106
f 91//91 107//107 106//106
f 91//91 92//92 107//107
f 92//92 108//108 107//107
f 92//92 93//93 108//108
f 93//93 109//109 108//108
f 93//93 94//94 109//109
f 94//94 110//110 109//109
f 94//94 95//95 110//110
f 95//95 111//111 110//110
f 95//95 96//96 111//111
f 96//96 112//112 111//111
f 96//96 97//97 112//112
f 97//97 113//113 112//112
f 97//97 82//82 113//113
f 82//82 98//98 113//113
f 98//98 99//99 114//114
f 99//99 115//115 114//114
f 99//99 100//100 115//115
f 100//100 116//116 115//115
f 100//100 101//101 116//116
f 101//101 117//117 116//116
f 101//101 102//102 117//117
f 102//102 118//118 117//117
f 102//102 103//103 118//118
f 103//103 119//119 118//118
f 103//103 104//104 119//119
f 104//104 120//120 119//119
f 104//104 105//105 120//120
f 105//105 121//121 120//120
f 105//105 106//106 121//121
f 106//106 122//122 121//121
f 106//106 107//107 122//122
f 107//107 123//123 122//122
f 107//107 108//108 123//123
f 108//108 124//124 123//123
f 108//108 109//109 124//124
f 109//109 125//125 124//124
f 109//109 110//110 125//125
f 110//110 126//126 125//125
f 110//110 111//111 126//126
f 111//111 127//127 126//126
f 111//111 112//112 127//127
f 112//112 128//128 127//127
f 112//112 113//113 128//128
f 113//113 129//129 128//128
f 113//113 98//98 129//129
f 98//98 114//114 129//129
f 114//114 115//115 130//130
f 115//115 131//131 130//130
f 115//115 116//116 131//131
f 116//116 132//132 131//131
f 116//116 117//117 132//132
f 117//117 133//133 132//132
f 117//117 118//118 133//133
f 118//118 134//134 133//133
f 118//118 119//119 134//134
f 119//119 135//135 134//134
f 119//119 120//120 135//135
f 120//120 136//136 135//135
f 120//120 121//121 136//136
f 121//121 137//137 136//136
f 121//121 122//122 137//137
f 122//122 138//138 137//137
f 122//122 123//123 138//138
f 123//123 139//139 138//138
f 123//123 124//124 139//139
f 124//124 140//140 139//139
f 124//124 125//125 140//140
f 125//125 141//141 140//140
f 125//125 126//126 141//141
f 126//126 142//142 141//141
f 126//126 127//127 142//142
f 127//127 143//143 142//142
f 127//127 128//128 143//143
f 128//128 144//144 143//143
f 128//128 129//129 144//144
f 129//129 145//145 144//144
f 129//129 114//114 145//145
f 114//114 130//130 145//145
f 146//146 130//130 131//131
f 146//146 131//131 132//132
f 146//146 132//132 133//133
f 146//146 133//133 134//134
f 146//146 134//134 135//135
f 146//146 135//135 136//136
f 146//146 136//136 137//137
f 146//146 137//137 138//138
f 146//146 138//138 139//139
f 146//146 139//139 140//140
f 146//146 140//140 141//141
f 146//146 141//141 142//142
f 146//146 142//142 143//143
f 146//146 143//143 144//144
f 146//146 144//144 145//145
f 146//146 145//145 130//130
